<svg width="54" height="60" viewBox="0 0 54 60" fill="none" xmlns="http://www.w3.org/2000/svg">
<path fill-rule="evenodd" clip-rule="evenodd" d="M13.4904 45.5625C13.4739 33.4856 13.4656 27.4478 13.4656 27.4478C13.6605 24.723 14.8014 23.549 16.8873 23.9258C18.1711 24.5777 18.8089 26.0376 18.7995 28.303C19.2684 34.9455 19.5034 38.2668 19.5034 38.2668C19.9345 39.6983 21.0412 39.7149 22.8247 38.3164C33.8953 26.1734 39.4299 20.1013 39.4299 20.1013C42.0425 18.4962 43.7055 20.0753 42.9024 22.4163C36.059 30.9368 32.6374 35.1971 32.6374 35.1971C32.3976 36.292 32.9185 36.5932 34.1965 36.103C42.8517 28.4872 47.1793 24.6805 47.1793 24.6805C49.8013 23.5077 51.2293 25.4175 49.5946 27.8506C41.8784 35.4652 38.0209 39.2731 38.0209 39.2731C37.5001 40.5393 37.9867 41.1263 39.4808 41.0341C47.1958 35.5999 51.0533 32.8821 51.0533 32.8821C52.0891 32.7687 52.7943 32.9542 53.1675 33.4361C53.8206 34.3113 53.8372 35.1168 53.2171 35.8514C45.6025 41.8562 41.7946 44.8586 41.7946 44.8586C41.0847 46.0799 41.4202 46.6917 42.8009 46.6952C48.7726 43.5074 51.7584 41.9141 51.7584 41.9141C52.8274 41.6353 53.4817 41.8527 53.7203 42.5684C53.9258 43.3964 53.5573 44.1511 52.6136 44.8326C40.4174 53.4465 32.7945 58.2193 29.7437 59.1489C23.7566 60.1788 19.0098 58.4839 15.503 54.0666C14.3762 51.5792 13.7053 48.7445 13.4904 45.5626L13.4904 45.5625Z" fill="white"/>
<path fill-rule="evenodd" clip-rule="evenodd" d="M0.9116 28.9573C4.73013 32.7605 8.26874 36.0145 11.5286 38.7192C11.5286 38.7192 11.5286 35.7168 11.5286 29.7121C5.62422 26.4239 2.67262 24.7809 2.67262 24.7809C0.17575 24.6498 -0.411261 26.0424 0.911579 28.9573H0.9116Z" fill="white"/>
<path fill-rule="evenodd" clip-rule="evenodd" d="M16.5235 21.9367C13.9735 21.8363 13.403 22.8426 13.403 22.8426C13.403 22.8426 13.4077 16.9642 13.4408 5.86063C14.381 2.72832 17.9881 3.48895 18.3223 6.16181C19.429 16.2261 19.9818 21.2576 19.9818 21.2576C21.144 21.9816 21.8668 21.8293 22.1503 20.8017C22.0133 8.5925 21.9448 2.4886 21.9448 2.4886C22.8956 -0.549221 26.524 0.227949 27.2279 3.24333C27.2952 15.6556 27.3295 21.8612 27.3295 21.8612C28.0051 22.186 28.6594 22.0526 29.2913 21.4585C30.633 11.7639 31.3039 6.91667 31.3039 6.91667C32.7106 4.35484 34.8839 5.72493 35.3799 7.72219C34.5414 17.6849 34.1221 22.6668 34.1221 22.6668C27.111 30.1479 23.6055 33.8874 23.6055 33.8874C22.5212 35.1701 21.6649 34.3197 21.5421 33.7374C21.2066 28.068 20.6243 24.9062 20.6243 24.9062C20.0149 23.0743 18.4629 21.8164 16.5235 21.9369L16.5235 21.9367Z" fill="white"/>
</svg>
