<svg width="40" height="40" viewBox="0 0 40 40" fill="none" xmlns="http://www.w3.org/2000/svg">
<path fill-rule="evenodd" clip-rule="evenodd" d="M26.4217 27.6C23.6167 30.1283 19.9033 31.6667 15.8333 31.6667C7.095 31.6667 0 24.5717 0 15.8333C0 7.095 7.095 0 15.8333 0C24.5717 0 31.6667 7.095 31.6667 15.8333C31.6667 19.9033 30.1283 23.6167 27.6 26.4217L40 38.8217L38.8217 40L26.4217 27.6ZM15.8333 1.66667C23.6517 1.66667 30 8.015 30 15.8333C30 23.6517 23.6517 30 15.8333 30C8.015 30 1.66667 23.6517 1.66667 15.8333C1.66667 8.015 8.015 1.66667 15.8333 1.66667Z" fill="black"/>
</svg>
